/* XPM */
static char *f4c71413bb894dcab774a8462436c671EmRIfP70reXEyJ8b[] = {
/* columns rows colors chars-per-pixel */
"75 75 211 2 ",
"   c None",
".  c #7E0E0C",
"X  c #64100A",
"o  c #74150E",
"O  c #7A110F",
"+  c #70190D",
"@  c #631711",
"#  c #6A1711",
"$  c #6A1912",
"%  c #751610",
"&  c #7B1411",
"*  c #771B13",
"=  c #9C0F09",
"-  c #80100E",
";  c #9D100A",
":  c #971713",
">  c #961B15",
",  c #9A1B16",
"<  c #971E18",
"1  c #9B1C19",
"2  c #A00E07",
"3  c #AD0E04",
"4  c #B10F05",
"5  c #B80D08",
"6  c #A11107",
"7  c #AC1506",
"8  c #AE1807",
"9  c #A41408",
"0  c #AC150A",
"q  c #AD190D",
"w  c #B31405",
"e  c #BC1505",
"r  c #BC1906",
"t  c #B3150B",
"y  c #BC1509",
"u  c #B41A0B",
"i  c #BD1C0C",
"p  c #B61612",
"a  c #B91613",
"s  c #B31C13",
"d  c #BC1C13",
"f  c #982116",
"g  c #9C201B",
"h  c #B7200F",
"j  c #BD200F",
"k  c #AB251E",
"l  c #A0221C",
"z  c #B52316",
"x  c #BC2314",
"c  c #B52815",
"v  c #BB2913",
"b  c #B6241B",
"n  c #BB231B",
"m  c #B62A1B",
"M  c #BA291C",
"N  c #B1351E",
"B  c #B62920",
"V  c #BB2A22",
"C  c #BF3121",
"Z  c #BA3E23",
"A  c #C10D01",
"S  c #C31504",
"D  c #C91506",
"F  c #C41A06",
"G  c #CC1A06",
"H  c #C2160A",
"J  c #CA1609",
"K  c #C41B0B",
"L  c #CC1C0C",
"P  c #D01507",
"I  c #D41C06",
"U  c #D91E07",
"Y  c #D1170B",
"T  c #DC1709",
"R  c #D31D0B",
"E  c #DB1D0B",
"W  c #C41E12",
"Q  c #CB1D12",
"!  c #C31E1B",
"~  c #D31C11",
"^  c #D91E11",
"/  c #E31E0F",
"(  c #E01614",
")  c #E41F11",
"_  c #EE1E13",
"`  c #C4210E",
"'  c #CB210E",
"]  c #D62007",
"[  c #DF2007",
"{  c #D5220C",
"}  c #DB210C",
"|  c #D92A0F",
" . c #D32A0F",
".. c #C32215",
"X. c #CC2414",
"o. c #C22A15",
"O. c #CF2915",
"+. c #C5241A",
"@. c #CC231C",
"#. c #C42C1B",
"$. c #CC2A1B",
"%. c #D42313",
"&. c #DC2312",
"*. c #D52A16",
"=. c #DD2A14",
"-. c #DB261A",
";. c #D22C1C",
":. c #DB2B1C",
">. c #CB321F",
",. c #D7341E",
"<. c #E12106",
"1. c #E3230C",
"2. c #E9230D",
"3. c #E0280F",
"4. c #E32413",
"5. c #EC2514",
"6. c #E32914",
"7. c #EC2A14",
"8. c #E3251A",
"9. c #EB251B",
"0. c #E32B1B",
"q. c #EC2C1B",
"w. c #F12714",
"e. c #F22B16",
"r. c #F4271E",
"t. c #F22C1C",
"y. c #FA2D1B",
"u. c #F92E16",
"i. c #EC3117",
"p. c #E4321C",
"a. c #EC321D",
"s. c #F5321C",
"d. c #F9321F",
"f. c #C42723",
"g. c #CD2120",
"h. c #C62C25",
"j. c #CD2B22",
"k. c #CE2E29",
"l. c #D42D23",
"z. c #DB2D22",
"x. c #DE2F28",
"c. c #D52D2B",
"v. c #C33127",
"b. c #CD3225",
"n. c #CE332A",
"m. c #CD3D24",
"M. c #D43125",
"N. c #DB3223",
"B. c #D93B27",
"V. c #D4342C",
"C. c #DB342C",
"Z. c #D3382D",
"A. c #DD392C",
"S. c #C53B30",
"D. c #D93430",
"F. c #DC3B32",
"G. c #D33638",
"H. c #E42E21",
"J. c #EB2E21",
"K. c #F32D21",
"L. c #FA2D24",
"P. c #E33324",
"I. c #EC3323",
"U. c #E43925",
"Y. c #EA3924",
"T. c #E3352B",
"R. c #EC342A",
"E. c #E33B2D",
"W. c #EB3A2B",
"Q. c #F73522",
"!. c #F53521",
"~. c #F43323",
"^. c #FA3526",
"/. c #FA3325",
"(. c #F33926",
"). c #F6342A",
"_. c #F5362E",
"`. c #F3352C",
"'. c #FA3328",
"]. c #FB3428",
"[. c #FC332E",
"{. c #FA342C",
"}. c #F33A2A",
"|. c #F33A2F",
" X c #F33A2B",
".X c #FB392C",
"XX c #E03530",
"oX c #EE3631",
"OX c #EB3732",
"+X c #E43C32",
"@X c #EB3B32",
"#X c #E73E39",
"$X c #EB3F3A",
"%X c #F23431",
"&X c #FC3531",
"*X c #F23F31",
"=X c #F53C33",
"-X c #F43C31",
";X c #F93B35",
":X c #DD4034",
">X c #E7402A",
",X c #EE4131",
"<X c #EF4136",
"1X c #E3423D",
"2X c #EB423D",
"3X c #E44237",
"4X c #F04139",
"5X c #D1623E",
"6X c #E34349",
"7X c #EA6241",
"8X c #EB754F",
/* pixels */
"                                                                                                                                                      ",
"                                                                                                                                                      ",
"                                                                                                                                                      ",
"                                                                                                                                                      ",
"                                                                                                                                                      ",
"                                        6X2X4X<X|.<X,X=X=X=X=X=X-X|.|.|.|.-X-X|. X>XW.%XoXoXoXoXW.W.W.A.E.D.                                          ",
"                                        &X^.}.(.]./.Q.!.!.~.Q.!./.d.s.!.s.d.d.s.s.s.s.d.s.!.!.!.'.L.~.p.J.7.                                          ",
"                                        .X<Xh.V h.h.h.V V V V V V V V B B M M m c c c M m c z z b n b n l.0.                                          ",
"                                        &X`.k.l g g f g 1 1 1 1 , 1 1 1 1 1 1 , , > > , , > > : > : < k g.q.                                          ",
"                                        &X.XM., k M c M M M M V #.n M m m M M n m m b M M b b M v b k B @.q.                                          ",
"                                        [.].N.b M.a.t.a.P.a.a.p.p.q.H.p.p.p.i.p.0.0.0.p.0.p.0.0.q.a.$.#.$.q.                                          ",
"                                        '.Q.C.n 0.!./.Y.U.'.Y.R. X).`.}.s.d.~.`.).~.~.s.!.Q.s.L.d.i.:.@.;.7.                                          ",
"                                        ].~.C.n P.!.).v c O.o.o.+.X.+.+.Y./.`.X.x v v +.+.+.f.+.~.s.:.O.j.e.                                          ",
"                                        '.K.C.n P.!.-Xz M N.M.M.N.x.C.F.%X).W.E.j.b.z.z.H.C.M.+.Q.u.:.X.j.7.                                          ",
"                                        '.~.C.b P.~.`.d n.;X<X.X.X;X$X#X-X'.}.+XE.`.].Y.~. XA.o.!.s.:.$.j.7.                                          ",
"                                        '.s.C.n 0.~.%Xn j.-X(.~./..X+XF.R.L./.E.A.Y.~.~./.~.N.o.Q.t.:.X.l.7.                                          ",
"                                        '.s.M.n H.~.oXm b.&X_.)..X.X@X1X~./.}.+XXX`.~.~.t.~.P.f.Q.s.:.@.;.7.                                          ",
"                                        '.s.C.n H.~.`.z j.-X(.(..X.X>X1XU.Q.Y.E.R.`./.K././.H.X.s.u.:.g.O.7.                                          ",
"                                        '.d.l.n H.~.`.b C @XE.XX+XW.F.:XW./.W.F.D.T.A.P.I.P.M.#.d.i.*.@.;.7.                                          ",
"                                        /.t.M.n H./.%Xn S.c.b.k.v.h.h.G.%X[.oXZ.h.M m +.n V n n ~.i.:.g.$.7.                                          ",
"                                        /.t.M.n H.~.{.P.B.R.T.P.Y.a.T.V.a.Q.I.z.H.z.,.:.z.z.z.8.t.e.%.@.;.7.                                          ",
"                                        K.t.M.n N.~.L.Q.s.~.`.`.y.L.K.U.~.Q.~.K.L.r.t.s.y.t.y.u.s.e.;.@.#.7.                                          ",
"                                        '.t.b.b :.~.~.(.W.R.E.W.U. XT.E.P.(.R.P.E.W.U.W.R.R.R.P.t.e.;.g.#.7.                                          ",
"                                        '.q.M.z :.I.R.X.M.M.l.c.M.Z.Z.n.N.a.a.l.Z.Z.V.n.c.C.k.V ~.q.O.g.>.7.                                          ",
"                                        '.t.b.s :.I.`.W XXOXoXR.#X2X#XF.P.d.~.T.2X2X<X>XW.,XF...t.t.@.g.#.w.                                          ",
"                                        '.q.l.z :.I.`.+.l.R.`.K.I.`.H.T.J.L.K.P.C.I.q.i.a.p.-.%.t.7.O.@.#.7.                                          ",
"                                        ~.q.l.z :.I.R.W ;.R.~.~.s.).I.T.H.K.I.N.P.a.t.a.t.J.-.X.I.7.O.@.#.7.                                          ",
"                                        u.J.$.h -.q.K...$.L.I.K.s.K.I.T.J.K.I.P.P.I.t.K.t.t.-.+.J.e.%.+.#.5.                                          ",
"                                        t.q.l.h -.q.~...$.L.~.t.t.K.H.T.J.a.J.P.P.q.t.t.e.t.-.+.J.w.%.+.#.5.                                          ",
"                                        e.K.;.h -.q.q...$.L.K.t.a.K.H.P.q.r.J.P.z.J.q.7.e.t.-.+.J.e.%.+.#.5.                                          ",
"                                        e.J.l.s -.q.q...$.L.9.e.q.t.J.H.0.K.J.H.H.J.r.7.r.q.-.+.q.w.O...o.5.                                          ",
"                                        e.q.$.u -.q.q.d $.K.q.r.q.K.H.N.8.7.J.H.z.J.7.9.w.q.-.+.0.e.%.! #.7.                                          ",
"                                        t.7.#.h =.7.q.d X.L.t.q.q.t.0.x.6.e.q.0.0.q.q.q.5.q.%.+.q.w.X.! o.5.                                          ",
"                                        e.7.#.q { 7.K.i X.K.q.r.q.e.0.N.6.e.q.0.:.6.7.9.w.7.-.W q.5.X.! o.5.                                          ",
"                                        9.7.#.u { 7.q.i X.r.7.7.q.e.0.l.=.e.q.0.:.7.7.5.9.q.%.W 6.w.X.! o.5.                                          ",
"                                        5.6.+.u  .7.q.j X.t.q.7.7.t.8.:.} 7.q.0.:.8.6.7.e.q.-.! 7._ X.! o.5.                                          ",
"                                        5.6.+.8 { 2.q.i X.w.q.7.6.e.-.:.3.5.7.0.:.6.4.5.9.q.%...0.5.X.! o.2.                                          ",
"                                        2.4.+.u { 3.0.u X.0.7.5.6.q.=.:.6.7.6.8.:.0.6.4.5.7.%.` 6.2.X.....2.                                          ",
"                                        5.4.+.t { 6.9.K ~ q.5.5.5.r.6.:.-.w.9.q.8.8.6.6.5.r.%.K 0.2.X.d n 2.                                          ",
"                                        1.6.+.s { 2.9.H X.P.q.7.9.r.6.*.=.w.w.8.8.8.8.8.8.8.%.` 8.2.$.d +.2.                                          ",
"                                        5.4.+.t ] 3.4.i K K K ` i H K *.=.7.3.:.X.e i i i i u h 6.2.X.d ../                                           ",
"                                        2.4.$.q O.| -.L X.X.X.X.+.X.X.` } 2.6.L W d K K ` ..X.i -.2...W x 2.                                          ",
"                                        5.4.+.q o.7X,.H.:.:.0.0.8.8.-.*.6.5.2.6.-.-.z.8.6.0.-.8.4.2.W d n 2.                                          ",
"                                        ) 5.+.0 m.8X5XZ N M *.1.1.1.2.2.4.6.4.1.3.4.4.3.4.3.4.| 4.3.X.K x <.                                          ",
"                                        5.4.+.q ..#.o.4.1.3.2._ 1.1.2.2.4.2.1.<.1.&.4.4.4.&.&.=.4.1.W i d 1.                                          ",
"                                        ) 4.! 0 %.&.4.5.4.) 4.5.1.3.} 6.1.2.2.3.=.&.4.8.8.9.8.4.1.} W K ..<.                                          ",
"                                        / 4.+.t ~ ) -.L X.K ` i L L K G 1.2.3.' W W W K K i j ` } 1.W K d <.                                          ",
"                                        / 4.+.0 R ) &.r E.C.XXC.T.C.A.M.^ / =.W F.F.D.E.A.A.E.+.4.} X.d n <.                                          ",
"                                        ) 4.W q L } 4.e L &.4.&.&.1.%.X.R 2.&.K Q %.&.&.&.&.X.L &.] ' d x E                                           ",
"                                        ) 8.n q R } &.e L -.4.4.4.1.%.Q R 1.4.J %.-.&.} ^ &.L L &.U W d i }                                           ",
"                                        ) 4...q ' [ 4.e L &.&.4.} 1.{ Q R 1.8.J L %.E { } &.X.L 3.] ..d x E                                           ",
"                                        ) ) ..0 I E &.e L &.E / { [ %.Q R / -.J Q { } E R &.L ' } } H a ` E                                           ",
"                                        5.^ ..0 G { &.e L &.4.} } [ R X.R ) &.J G { ] { ^ ^ L K E ] K a j E                                           ",
"                                        4.) ..q G } { r K &.E } } / R ' R ) &.J L %.U E E ^ L K } { ..a i {                                           ",
"                                        ^ 4...0 G } { w G &.E E } E ~ ..L E &.H W { { E E %.K K %.{ K a x ~                                           ",
"                                        &./ ! q G ] { w K { E E E E %.K R E ^ H L { } E E &.' ` R { i p u ~                                           ",
"                                        4.4.W 9 G { { w G R E E { E ~ K L E ^ H L %.R E E R G K R { i p i ~                                           ",
"                                        4.E ! 0 G ] R w K R E E T E L r ' E ^ H K ~ I U E R H F R I i p i ~                                           ",
"                                        &.} W 9 F ] R w G { E U U E L K J E &.H J J I I R R H F R ] i p u ~                                           ",
"                                        4.^ x 9 K ] ~ w H R I I ] E L K Y I %.H K R I R Y R H r R L u s u ~                                           ",
"                                        &.} x 9 e I L w H R E I E T L r K Y { y K G R G G G K r I L u u p ~                                           ",
"                                        4.E x 6 F L Q 4 K J R R I Y W i ` R { y i ' G F J L i r G G u t u Y                                           ",
"                                        E E i 6 H J Q 3 K ~ L R Y R W t K Y R y r K F G J Q i w D G 8 0 u Y                                           ",
"                                        &.E x ; F G J 3 y Q L ' G J W t K Y R t u K F H L W y r D L w 0 u Y                                           ",
"                                        T E d ; e F K w w w e w w w w e r J L 4 0 0 t w w w t t L H 8 7 u Y                                           ",
"                                        T T s ; e F H K $.;.;.;.;.$.;.O.K J J ..$.#.$.@.j.j.j.@.J H u 7 u Y                                           ",
"                                        / U z ; y F J J Y D D J H L H S H J D K y y y H y K K H J H 0 7 u Y                                           ",
"                                        E E u ; w F F F F S r S F J H e S D D S y H y H S H H H D y 0 7 t P                                           ",
"                                        T E p = w S S D S D D S S S e e e S S e r e e e e e e e D 5 7 0 u P                                           ",
"                                        U I i 2 5 S S w w w w w 5 y y 5 w w 7 w w w t w w w 7 w A 5 7 8 u D                                           ",
"                                        ( ( s X @ # o . . . - - % % % o o O & & & & & & O O O O + # @ * a Q                                           ",
"                                                                                                                                                      ",
"                                                                                                                                                      ",
"                                                                                                                                                      ",
"                                                                                                                                                      "
};
