/* XPM */
static char *_ca773aa624247c4be9999568b0ab04bP2Do2PjoLKWMxqln[] = {
/* columns rows colors chars-per-pixel */
"75 75 137 2 ",
"   c None",
".  c #DE1F26",
"X  c #DE2127",
"o  c #DD2329",
"O  c #DE2B2D",
"+  c #DE372D",
"@  c #DE3A2F",
"#  c #D32F35",
"$  c #D92D33",
"%  c #D43137",
"&  c #D83037",
"*  c #D63238",
"=  c #DA3339",
"-  c #DB383E",
";  c #DE4531",
":  c #DF673B",
">  c #DF713F",
",  c #C73D42",
"<  c #CB3E44",
"1  c #DE3F45",
"2  c #BC5155",
"3  c #B2676A",
"4  c #B4696C",
"5  c #BD7375",
"6  c #CC4247",
"7  c #DC4146",
"8  c #D2454B",
"9  c #DE494E",
"0  c #D54D52",
"q  c #CC5054",
"w  c #C4585C",
"e  c #DB5156",
"r  c #DD5459",
"t  c #DF7841",
"y  c #CA5D61",
"u  c #DF5D62",
"i  c #CE6265",
"p  c #CC6468",
"a  c #C76A6D",
"s  c #CB6A6D",
"d  c #D06367",
"f  c #D3666A",
"g  c #D4686C",
"h  c #DD6A6F",
"j  c #CB6D71",
"k  c #D66F73",
"l  c #CF7276",
"z  c #D27477",
"x  c #D37679",
"c  c #DE777B",
"v  c #D5787B",
"b  c #DE7A7E",
"n  c #B9936C",
"m  c #DF8545",
"M  c #DD8A48",
"N  c #DF9449",
"B  c #C6925F",
"V  c #D69350",
"C  c #D89654",
"Z  c #DC9956",
"A  c #D4995E",
"S  c #C79460",
"D  c #CA9764",
"F  c #CC9965",
"G  c #C39669",
"H  c #D99E63",
"J  c #C29C75",
"K  c #CE9F70",
"L  c #C39E78",
"P  c #D5A16E",
"I  c #CAA37C",
"U  c #D5A271",
"Y  c #DDA975",
"T  c #DDAA78",
"R  c #AA8A8A",
"E  c #B69596",
"W  c #BA9B9C",
"Q  c #BFA488",
"!  c #AAA199",
"~  c #B3ACA5",
"^  c #BAA8A9",
"/  c #BAB2AA",
"(  c #CB8285",
")  c #CF8C8E",
"_  c #DD8386",
"`  c #DF8588",
"'  c #DA8C8F",
"]  c #C99D82",
"[  c #D49193",
"{  c #D99698",
"}  c #CBA681",
"|  c #C3A78C",
" . c #C7A98C",
".. c #D3AB83",
"X. c #D4AF8A",
"o. c #D8AF88",
"O. c #D5B08B",
"+. c #DDB48D",
"@. c #C6A190",
"#. c #C6AC91",
"$. c #CCAD94",
"%. c #C1AF9C",
"&. c #C4B29F",
"*. c #CFB59A",
"=. c #D2B79B",
"-. c #D5B99E",
";. c #DE9EA1",
":. c #E09DA0",
">. c #C3A3A4",
",. c #DFA1A3",
"<. c #C8B6A3",
"1. c #C6BAAF",
"2. c #D5BAA0",
"3. c #D9BFA5",
"4. c #D1BFAD",
"5. c #DFB4B5",
"6. c #D4BCBD",
"7. c #DDC3A8",
"8. c #CBC2BA",
"9. c #D4C2B1",
"0. c #DAC7B3",
"q. c #E1C7AC",
"w. c #C3C3C3",
"e. c #CBC8C5",
"r. c gray79",
"t. c #DEC6C7",
"y. c #D4CDC5",
"u. c #DCD1C5",
"i. c #DCD4CC",
"p. c #DFDADA",
"a. c #E4CBCC",
"s. c #E2D8CF",
"d. c #E2DBD3",
"f. c #DFE0E0",
"g. c #DFE0E0",
"h. c #E2E1E1",
"j. c gray90",
/* pixels */
"                                                                                                                                                      ",
"                                                                                                                        i.U P P P Y Y Y Y P P P P T   ",
"                                                                                                                        1.N N N N N N N N N N N N N   ",
"                                                                                                                        1.N N N N N N N N N N N N N   ",
"                                                                                                                        1.N N N N N N N N N N N N N   ",
"                                                                                                                        9.N N N N N N N N N N N N N   ",
"                                                                                                                        u.N N N N N N N N N N N N Z   ",
"                                                                                              e.8.y.d.d.d.y.8.8.8.i.d.d.9.N N N N N N N N N N N N N   ",
"                                                                                              #.N N Z N Z N C N C N Z N N N N N N N N N N N N N N N   ",
"                                                                                              $.N N N N N N N N N N N N N N N N N N N N N N N N N N   ",
"                                                                                              =.N N N N N N N N N N N N N N N N N N N N N N N N N Z   ",
"                                                                                              =.N N N N N N N N N N N N N N N N N N N N N N N N N N   ",
"                                                                                              =.N N N N N N N N N N N N N N N N N N N N N N N N N N   ",
"                                                                                              $.N N N N N N N N N N N N N N N N N N N N N N N N N N   ",
"                                                                    q.+.+.+.........+.+.+.o...J n n I J J n V N N N N N N n n n n n J J J n n n n L   ",
"                                                                    O.N N N N N N N N N N N N F e.          A N N N N N Z                             ",
"                                                                    X.N N N N N N N N N N N N F             A N N N N N Z                             ",
"                                                                    } N N N N N N N N N N N N K             H N N N N N Z                             ",
"                                                                    } N N N N N N N N N N N N U             Z N N N N N C                             ",
"                                                                    I N N N N N N N N N N N N U             P N N N N N C                             ",
"                                                                    I N C N N N N N N N N N N U             P N N N N N C                             ",
"                                                        Z Z Z Z Z Z I / / / ! ! ! ! / / / ~ ! ~             A N N N N N Z                             ",
"                                                        N N N N N N o.                                      A N N N N N Z                             ",
"                                                        N N N N N N o.                                      A N N N N N Z                             ",
"                                                        N N N N N N o.                                      A N N N N N Z                             ",
"                                                        N N N N N N I                                       H N N N N N C                             ",
"                                                        N N N N N N I                                       H N N N N N C                             ",
"                :.:.{ ) ) ) { ;.:.:.[ ) ) $.7.q.q.q.=. .B B F F D D |                         s.q.3.*.*.*.2.K F F B B B G                             ",
"                o X . . . . . . . . . . . > N N N N N V                                       -.N N N N N N <.                                        ",
"                o . . . . . . . . . . . . > N N N N N Z                                       | N N N N N N %.                                        ",
"                o . . . . . . . . . . . . > N N N N N Z                                       | N N N N N N %.                                        ",
"                o . . . . . . . . . . . . > N N N N N Z                                       | N N N N N N %.                                        ",
"                X . . . . . . . . . . . . > N N N N N Z j.                                     .N N N N N N &.                                        ",
"                o . . . . . . . . . . . . > N N N N N C                                       =.N N N N N N 9.                                        ",
"  ' e 0 0 0 e r . . . . . . . . . . . . . > N N N N N M 0 0 r r r r (                         =.N N N N N N 9.                                        ",
"  g . . X X . . . . . . . . . . . . . . . > N N N N N m . . . . X . p                         =.N N N N N N 9.                                        ",
"  f X . . . . . . . . . . . . . . . . . . > N N N N N m . . . . . . p                         =.N N N N N N 4.                                        ",
"  y . . . . . . . . . . . . . . . . . . . > N N N N N m . . . . . X k                         | N N N N N N %.                                        ",
"  y . . . . . . . . . . . . . . . . . . . > N N N N N m . . . . . . k                         | N N N N N N %.                                        ",
"  y . . . . . . . . . . . . . . . . . . . > N N N N N m . . . . . . k                         | N N N N N N %.                                        ",
"  i . . . . . . . . . . . . . . . . . . . : m m m m m t . . . . . . k             t.a.a.a.t.6.] N N N N N N | 6.6.a.a.a.                              ",
"  f . . . . . . . . . . . . . . . . . . . . . . X X X X . . . . . . p             - o o o o o ; N N N N N N + X o X o X =                             ",
"  g . . . . . . . . . . . . . . . . . . . . . . . . . . . . . . . . p             = . . . . . ; N N N N N N + . . . . . $                             ",
"  g . . . . . . . . . . . . . . . . . . . . . . . . . . . . . . . . p             = . . . . . ; N N N N N N + . . . . . &                             ",
"  d . . . . . . . . . . . . . . . . . . . . . . . . . . . . . . . . g             = . . . . . ; N N N N N N + . . . . . &                             ",
"  y . . . . . . . . . . . . . . . . . . . . . . . . . . . . . . . . k             * . . . . . ; N N N N N N + . . . . . =                             ",
"  y . . . . . . . . . . . . . . . . . . . . . . . . . X . . . . . . k             % . . . . . ; N N N N N N + . . . . . =                             ",
"  y . . . . . . c b b b b c u . . . . . . . . . . . . o w w 2 2 2 2 s ` ` _ x x l O . . . . . ; N N N N N N + . . . . . $ l x x x _ ` 5.              ",
"  d . . . . . X d.g.g.g.g.g.;.. . . . . . . . . . . . $ r.          s . . . . . . . . . . . . ; N N N N N N + . . . . . . . . . . . . l               ",
"  g . . . . . . p.g.g.g.g.g.;.. . . . . . . . . . . . $             a . . . . . . . . . . . . ; N N N N N N + . . . . . . . . . . . . s               ",
"  g . . . . . . p.g.g.g.g.g.;.. . . . . . . . . . . . $             a . . . . . . . . . . . . ; N N N N N N + . . . . . . . . . . . o a               ",
"  g . . . . . . p.g.g.g.g.g.;.. . . . . . . . . . . . $             a . . . . . . . . . . . . ; N N N N N N + . . . . . . . . . . . . a               ",
"  d . . . . . o d.g.g.g.g.g.;.. . . . . . . . . . . . $             l . . . . . . . . . . . . ; N N N N N N + . . . . . . . . . . . . l               ",
"  y . X . . . X p.g.g.g.g.g.;.. . . . . . . . . . . . $             z . . . . . . . . . . . . ; N N N N N N + . . . . . . . . . . . . v               ",
"  ^ E >.>.>.W R 1 1 1 1 1 1 - . . . . . . . . . . . . =             z . . . . . . . . . . . X X O O O O O O X . . . . . . . . . . . . v               ",
"                o . . . . . . . . . . . . . . . . . . $             z . . . . . . . . . . . X . . . . . . . X . . . . . . . . . . . . v               ",
"                o . . . . . . . . . . . . . . . . . . $             j . . . . . . . . . . . . . . . . . . . . . . . . . . . . . . . . j               ",
"              h.o . . . . . . . . . . . . . . . . . . $             a . . . . . . . . . . . . . . . . . . . . . . . . . . . . . . . . s               ",
"              h.o . . . . . . . . . . . . . . . . . . $             s . . . . . . . . . . . . . . . . . . . . . . . . . . . . . . . o a               ",
"              h.o . . . . . . . . . . X . . . . . . . $             s . . . . . . . . X . . . . . . . . . . . . . . . . . . . . . . . a               ",
"                6 , , 8 8 8 , , , , 6 6 6 6 , , , , 6 q             z . . . . . X r u u u u u 9 . . . . . . . . . . . . . . . . . . . x               ",
"                                                                    z . . . . . $ t.h.h.g.h.h.,.. . . . . . . . . . . . . . . . . . . v               ",
"                                                                    z . . . . . O a.g.g.g.g.h.,.. . . . . . . . . . . . . . . . . . . v               ",
"                                                                    z . . . . . O 0.g.g.g.g.d.:.. . . . . . . . . . . . . . . . . . . v               ",
"                                                                    j . . . . . $ t.d.g.g.g.g.,.. . . . . . . . . . . . . . . . . . . j               ",
"                                                                    a . . . . . o a.g.g.g.g.g.,.. . . . . . . . . . . . . . . . . . . a               ",
"                                                                    a . . . . . o a.g.g.g.g.h.:.. . . . . . . . . . . . . . . o . . . a               ",
"                                                                                  k h h h h h r . . . . . . . . . . . . o 5 5 5 5 4 3 E               ",
"                                                                                  % . . . . . . . . . . . . . . . . . . =                             ",
"                                                                                  = . . . . . . . . . . . . . . . . . . =                             ",
"                                                                                  = . . . . . . . . . . . . . . . . . . =                             ",
"                                                                                  % . . . . . . . . . . . . . . . . . . =                             ",
"                                                                                  = . . . . . . . . . . . . . o . . . . $                             ",
"                                                                                  8 # % % % * * % % % % # % % % % % # # <                             ",
"                                                                                                                                                      "
};
