/* XPM */
static char *e82d2de7076a4fb5e5c54f5c3d2f75edNjWL0EZ9mP3po0ER[] = {
/* columns rows colors chars-per-pixel */
"75 75 144 2 ",
"   c #FE0000",
".  c #F70F0F",
"X  c #FA0B0B",
"o  c #F90F10",
"O  c #F71414",
"+  c #F91313",
"@  c #F91718",
"#  c #F71B1B",
"$  c #F81B1B",
"%  c #F91F20",
"&  c #F72424",
"*  c #F92324",
"=  c #F72A2A",
"-  c #F92929",
";  c #F8302F",
":  c #F73333",
">  c #F93534",
",  c #F83837",
"<  c #F73F3E",
"1  c #F93C3C",
"2  c #F64443",
"3  c #F94343",
"4  c #F74847",
"5  c #F74C4C",
"6  c #F84B4B",
"7  c #F75151",
"8  c #F95454",
"9  c #F95E5E",
"0  c #F76060",
"q  c #F86262",
"w  c #F76D6D",
"e  c #F96D6C",
"r  c #F97373",
"t  c #F97977",
"y  c #F97C7C",
"u  c #FA8483",
"i  c #FB8B8B",
"p  c #FA9494",
"a  c #FB9897",
"s  c #FA9C9C",
"d  c #FBA4A4",
"f  c #FCA8A7",
"g  c #FBABAB",
"h  c #FCB7B6",
"j  c #FDB6B5",
"k  c #FCB4B3",
"l  c #FBBABA",
"z  c #FBBCBB",
"x  c #FDBEBF",
"c  c #FCBFBF",
"v  c #FDBFBF",
"b  c #FDBDBD",
"n  c #FBC0C0",
"m  c #FDC0C0",
"M  c #FCC3C2",
"N  c #FDC3C3",
"B  c #FCC5C5",
"V  c #FDC5C5",
"C  c #FCC6C6",
"Z  c #FCC5C4",
"A  c #FDCCCB",
"S  c #FDD0CF",
"D  c #FCD0D0",
"F  c #FDD0D0",
"G  c #FDD2D2",
"H  c #FDD3D3",
"J  c #FED3D3",
"K  c #FDD4D4",
"L  c #FDD5D4",
"P  c #FED5D5",
"I  c #FED6D5",
"U  c #FED5D5",
"Y  c #FED8D7",
"T  c #FED8D7",
"R  c #FDD8D8",
"E  c #FED8D8",
"W  c #FED9D8",
"Q  c #FED9D9",
"!  c #FCDCDC",
"~  c #FEDDDC",
"^  c #FDDEDD",
"/  c #FDDFDF",
"(  c #FEDEDE",
")  c #FEDFDF",
"_  c #FEDCDC",
"`  c #FEE0DF",
"'  c #FEE1E0",
"]  c #FEE2E2",
"[  c #FEE3E2",
"{  c #FEE4E3",
"}  c #FEE5E5",
"|  c #FEE6E5",
" . c #FEE0E0",
".. c #FEE9E8",
"X. c #FFEAEA",
"o. c #FFECEB",
"O. c #FBEDEC",
"+. c #FBEEEC",
"@. c #FAEEED",
"#. c #FEEDEC",
"$. c #FEEDED",
"%. c #FFEDED",
"&. c #FFEEED",
"*. c #FEEEEE",
"=. c #FFEFEF",
"-. c #FFECEC",
";. c #F8F0EF",
":. c #FFF0EF",
">. c #FFF0F0",
",. c #FFF1F1",
"<. c #FFF2F1",
"1. c #FFF3F1",
"2. c #FFF2F2",
"3. c #FEF3F2",
"4. c #FFF3F2",
"5. c #FFF3F3",
"6. c #FEF4F2",
"7. c #FEF4F4",
"8. c #FFF4F4",
"9. c #FFF5F4",
"0. c #FFF5F5",
"q. c #FFF6F5",
"w. c #FFF6F6",
"e. c #FEF7F7",
"r. c #FFF7F7",
"t. c #FFF3F3",
"y. c #FEF8F8",
"u. c #FFF8F8",
"i. c #FEF9F9",
"p. c #FFF9F9",
"a. c #FEFAFA",
"s. c snow",
"d. c #FFFBFB",
"f. c #FEFCFC",
"g. c #FFFCFC",
"h. c #FFFDFC",
"j. c #FFFDFD",
"k. c #FEFEFE",
"l. c #FFFEFE",
"z. c #FFFFFE",
"x. c #FEFEFF",
"c. c #FEFFFF",
"v. c white",
"b. c #FFFFFF",
/* pixels */
"v.v.v.v.v.v.v.v.v.v.v.v.v.v.v.v.v.v.v.v.v.v.v.v.v.v.v.v.v.v.v.v.v.v.v.v.v.v.v.v.v.v.v.v.v.v.v.v.v.v.v.v.v.v.v.v.v.v.v.v.v.v.v.v.v.v.O.O.O.;.w.v.v.v.v.",
"v.v.v.v.v.v.v.v.v.v.v.v.v.v.v.v.v.v.v.v.v.v.v.v.v.v.v.v.v.v.v.v.v.v.v.v.v.v.v.v.v.v.v.v.v.v.v.v.v.v.v.v.v.v.v.v.v.v.v.v.v.v.v.v.v.v.v.v.v.v.v.v.v.v.v.",
"v.v.v.v.v.v.v.v.v.v.v.v.v.v.v.v.v.v.v.v.v.v.v.v.v.v.v.v.v.v.v.v.v.v.v.v.v.v.v.v.v.v.v.v.v.v.v.v.v.v.v.v.v.v.v.v.v.v.v.v.v.v.v.v.v.v.v.v.v.v.v.v.v.v.v.",
"v.v.v.v.v.v.v.v.v.v.v.v.v.v.v.v.v.v.v.v.v.v.v.v.v.v.v.v.v.v.v.v.v.v.v.v.v.v.v.v.v.v.v.v.v.v.v.v.v.v.v.v.v.v.v.v.v.v.v.v.v.v.v.v.v.v.v.v.v.v.v.v.v.v.v.",
"v.v.v.v.v.v.v.v.v.v.v.v.v.v.v.v.v.v.v.v.v.v.v.v.v.v.v.v.v.v.v.v.v.v.v.v.v.v.v.v.v.v.v.v.v.v.v.v.v.v.v.v.v.v.v.v.v.v.v.v.v.v.v.v.v.v.v.v.v.v.v.v.v.v.v.",
"v.v.v.v.v.v.v.v.v.v.v.v.v.v.v.v.v.v.v.v.v.v.v.v.v.v.v.v.v.v.v.v.v.v.v.v.v.v.v.v.v.v.v.v.v.v.v.v.v.v.v.v.v.v.v.v.v.v.v.v.v.v.v.v.v.v.v.v.v.v.v.v.v.v.v.",
"v.v.v.v.v.v.v.v.v.v.v.v.v.v.v.v.v.v.v.v.v.v.v.v.v.v.v.v.v.v.v.v.v.v.v.v.v.v.v.v.v.v.v.v.v.v.v.v.v.v.v.v.v.v.v.v.v.v.v.v.v.v.v.v.v.v.v.v.v.v.v.v.v.v.v.",
"v.v.v.v.v.v.v.v.v.v.v.v.v.v.v.v.v.v.v.v.v.v.v.v.v.v.v.v.v.v.v.v.v.v.v.v.v.v.v.v.v.v.v.v.v.v.v.v.v.v.v.v.v.v.v.v.v.v.v.v.v.v.v.v.v.v.v.v.v.v.v.v.v.v.v.",
"v.v.v.v.v.v.v.v.v.v.v.v.v.v.v.v.v.v.v.v.v.v.v.v.v.v.v.v.v.v.v.v.v.v.v.i.:.&.o.X.&.,.v.v.v.v.v.v.v.v.v.v.v.v.v.v.v.v.v.v.v.v.v.v.v.v.v.v.v.v.v.v.v.v.v.",
"v.v.v.v.v.v.v.v.v.v.v.v.v.v.v.v.v.v.v.v.v.v.v.v.v.v.v.v.v.v.w.I a 9 < - + + + o + @ = 4 w g ] i.v.v.v.v.v.v.v.v.v.v.v.v.v.v.v.v.v.v.v.v.v.v.v.v.v.v.v.",
"v.v.v.v.v.v.v.v.v.v.v.v.v.v.v.v.v.v.v.v.v.v.v.v.v.v.v.w.l q *                               X , t F i.v.v.v.v.v.v.v.v.v.v.v.v.v.v.v.v.v.v.v.v.v.v.v.v.",
"v.v.v.v.v.v.v.v.v.v.v.v.v.v.v.v.v.v.v.v.v.v.v.v.v.( y &                                             1 d ,.v.v.v.v.v.v.v.v.v.v.v.v.v.v.v.v.v.v.v.v.v.v.",
"v.v.v.v.v.v.v.v.v.v.v.v.v.v.v.v.v.v.v.v.v.v.v.{ r +                                                     - s w.v.v.v.v.v.v.v.v.v.v.v.v.v.v.v.v.v.v.v.v.",
"v.v.v.v.v.v.v.v.v.v.v.v.v.v.v.v.v.v.v.v.v.w.a @                                                             , N v.v.v.v.v.v.v.v.v.v.v.v.v.v.v.v.v.v.v.",
"v.v.v.v.v.v.v.v.v.v.v.v.v.v.v.v.v.v.v.v.Q 2                                                                   X r &.v.v.v.v.v.v.v.v.v.v.v.v.v.v.v.v.v.",
"v.v.v.v.v.v.v.v.v.v.v.v.v.v.v.v.v.v.v.g @                                                                         < Y v.v.v.v.v.v.v.v.v.v.v.v.v.v.v.v.",
"v.v.v.v.v.v.v.v.v.v.v.v.v.v.v.v.v.i.i X                                                                             * l v.v.v.v.v.v.v.v.v.v.v.v.v.v.v.",
"v.v.v.v.v.v.v.v.v.v.v.v.v.v.v.v.i.t                                                                                   + k v.v.v.v.v.v.v.v.v.v.v.v.v.v.",
"v.v.v.v.v.v.v.v.v.v.v.v.v.v.v.i.e                                                                                       X j v.v.v.v.v.v.v.v.v.v.v.v.v.",
"v.v.v.v.v.v.v.v.v.v.v.v.v.v.v.u                                                                                           . N v.v.v.v.v.v.v.v.v.v.v.v.",
"v.v.v.v.v.v.v.v.v.v.v.v.v.v.g                                                       2 c X.Y u X                             * ( v.v.v.v.v.v.v.v.v.v.v.",
"v.v.v.v.v.v.v.v.v.v.v.v.v.Q O                                                     7 3.k.h.v.h.g X                             2 w.v.v.v.v.v.v.v.v.v.v.",
"v.v.v.v.v.v.v.v.v.v.v.v.w.3                                                     . D k.k.v.v.v.e.7                               i v.v.v.v.v.v.v.v.v.v.",
"v.v.v.v.v.v.v.v.v.v.v.v.p                                                       - w.v.v.v.v.v.v.p                               O R v.v.v.v.v.v.v.v.v.",
"v.v.v.v.v.v.v.v.v.v.v.] @                                                       * ,.v.v.v.v.v.v.i                                 7 k.k.k.k.v.v.v.v.v.",
"v.v.v.v.v.v.v.v.v.v.v.t                                                         X N v.v.v.v.v.1.,                                   n k.v.k.v.v.v.v.v.",
"v.v.v.v.v.v.v.v.v.v.( o                                                           : ] v.v.v.e.u                                   2 D v.v.v.v.v.v.v.v.",
"v.v.v.v.v.v.v.v.v.v.u                                                               # u x f 4                                 : h v.v.v.v.v.v.v.v.v.v.",
"v.v.v.v.v.v.v.v.v.,.=                                                                                                     & d w.v.v.v.v.v.v.v.v.v.v.v.",
"v.v.v.v.v.v.v.v.v.h                                                                                                   # p ,.v.v.v.v.v.v.v.v.v.v.v.v.v.",
"v.v.v.v.v.v.v.v.v.q                                                                                               # u &.v.v.v.v.v.v.v.v.v.v.v.v.v.v.v.",
"v.v.v.v.v.v.v.v.7.&                                                                                           O w } v.v.v.v.v.v.v.v.v.v.v.v.v.v.v.v.v.",
"v.v.v.v.v.v.v.v.I                                                                                         X 9 ( v.v.v.v.v.v.v.v.v.v.v.v.v.v.v.v.v.v.v.",
"v.v.v.v.v.v.v.v.f                                                                                     X 5 D v.v.v.v.v.v.v.v.v.v.v.v.v.v.v.v.v.v.v.v.v.",
"v.v.v.v.v.v.v.v.t                                                                                   4 N v.v.v.v.v.v.v.v.v.v.v.v.v.v.v.v.v.v.v.v.v.v.v.",
"v.v.v.v.v.v.v.v.5                                                                               < k w.v.v.v.v.v.v.v.v.v.v.v.v.v.v.v.v.v.v.v.v.v.v.v.v.",
"v.v.v.v.v.v.v.i.:                                                                           = d i.k.k.v.v.v.v.v.v.v.v.v.v.v.v.v.v.v.v.v.v.v.v.v.v.v.v.",
"v.v.v.v.v.v.v.,.*                                                                       & p w.k.k.k.k.v.v.v.v.v.v.v.v.v.v.v.v.v.v.v.v.v.v.v.v.v.v.v.v.",
"v.v.v.v.v.v.v.,.+                                                                   O u O.v.k.k.k.k.k.v.v.v.v.v.v.v.v.v.v.v.v.v.v.v.v.v.v.v.v.v.v.v.v.",
"v.v.v.v.v.v.v.,.+                                                               X w } k.k.v.k.k.k.k.k.v.v.v.v.v.v.v.v.v.v.v.v.v.v.v.v.v.v.v.v.v.v.v.v.",
"v.v.v.v.v.v.v.:.@                                                           X 0 ! k.k.k.k.k.k.k.k.k.k.v.v.v.v.v.v.v.v.v.v.v.v.v.v.v.v.v.v.v.v.v.v.v.v.",
"v.v.v.v.v.v.v.,.*                                                       X 8 A k.k.k.k.k.k.k.k.k.k.k.k.v.v.v.v.v.v.v.v.v.v.v.v.v.v.v.v.v.v.v.v.v.v.v.v.",
"v.v.v.v.v.v.v.i.:                                                     4 C k.k.k.k.k.k.k.k.k.k.k.k.k.k.v.v.v.v.v.v.v.v.v.v.v.v.v.v.v.v.v.v.v.v.v.v.v.v.",
"v.v.v.v.v.v.v.v.5                                                 : h i.k.k.k.k.k.k.k.k.k.k.k.k.k.k.v.v.v.v.v.v.v.v.v.v.v.v.v.v.v.v.v.v.v.v.v.v.v.v.v.",
"v.v.v.v.v.v.v.v.w                                             & g i.k.k.k.k.k.k.k.k.k.k.k.k.k.k.k.k.k.v.v.v.v.v.v.v.v.v.v.v.v.v.v.v.v.v.v.v.v.v.v.v.v.",
"v.v.v.v.v.v.v.v.d                                           - g ! y.v.v.k.k.k.k.k.k.k.v.k.k.k.k.k.k.k.v.v.v.v.v.v.v.v.v.v.v.v.v.v.v.v.v.v.v.v.v.v.v.v.",
"v.v.v.v.v.v.v.v.I                                               X # 4 t g ! 3.k.k.v.v.v.k.k.k.k.k.k.k.v.v.v.v.v.v.v.v.v.v.v.v.v.v.v.v.v.v.v.v.v.v.v.v.",
"v.v.v.v.v.v.v.v.w.*                                                         O , w d A O.k.k.k.k.k.k.k.v.v.v.v.v.v.v.v.v.v.v.v.v.v.v.v.v.v.v.v.v.v.v.v.",
"v.v.v.v.v.v.v.v.v.q                                                                   + - 9 a C ..e.v.v.v.v.v.v.v.v.v.v.v.v.v.v.v.v.v.v.v.v.v.v.v.v.v.",
"v.v.v.v.v.v.v.v.v.j                                                                             . & 7 i n } w.v.v.v.v.v.v.v.v.v.v.v.v.v.v.v.v.v.v.v.v.",
"v.v.v.v.v.v.v.v.v.,.*                                                                                     X % 6 y k ` ,.v.v.v.v.v.v.v.v.v.v.v.v.v.v.v.",
"v.v.v.v.v.v.v.v.v.v.y                                                                                               X # 3 w d Q ,.v.v.v.v.v.v.v.v.v.v.",
"v.v.v.v.v.v.v.v.v.v.Q .                                                                                                         # , d k.v.v.v.v.v.v.v.",
"v.v.v.v.v.v.v.v.v.v.v.r                                                                                                             C k.v.v.v.v.v.v.v.",
"v.v.v.v.v.v.v.v.v.v.v.( +                                                                                                         7 i.v.v.v.v.v.v.v.v.",
"v.v.v.v.v.v.v.v.v.v.v.v.p                                                                                                       . R v.v.v.v.v.v.v.v.v.",
"v.v.v.v.v.v.v.v.v.v.v.v.w.1                                                                                                     i v.v.v.v.v.v.v.v.v.v.",
"v.v.v.v.v.v.v.v.v.v.v.v.v.I +                                                                                                 4 w.v.v.v.v.v.v.v.v.v.v.",
"v.v.v.v.v.v.v.v.v.v.v.v.v.v.g                                                                                               & ( v.v.v.v.v.v.v.v.v.v.v.",
"v.v.v.v.v.v.v.v.v.v.v.v.v.v.v.u                                                                                           O C v.v.v.v.v.v.v.v.v.v.v.v.",
"v.v.v.v.v.v.v.v.v.v.v.v.v.v.v.i.e                                                                                       X k v.v.v.v.v.v.v.v.v.v.v.v.v.",
"v.v.v.v.v.v.v.v.v.v.v.v.v.v.v.v.i.r                                                                                   X k v.v.v.v.v.v.v.v.v.v.v.v.v.v.",
"v.v.v.v.v.v.v.v.v.v.v.v.v.v.v.v.v.i.u X                                                                             & l v.v.v.v.v.v.v.v.v.v.v.v.v.v.v.",
"v.v.v.v.v.v.v.v.v.v.v.v.v.v.v.v.v.v.v.f +                                                                         < I v.v.v.v.v.v.v.v.v.v.v.v.v.v.v.v.",
"v.v.v.v.v.v.v.v.v.v.v.v.v.v.v.v.v.v.v.v.F <                                                                   X w &.v.v.v.v.v.v.v.v.v.v.v.v.v.v.v.v.v.",
"v.v.v.v.v.v.v.v.v.v.v.v.v.v.v.v.v.v.v.v.v.w.p #                                                             : c v.v.v.v.v.v.v.v.v.v.v.v.v.v.v.v.v.v.v.",
"v.v.v.v.v.v.v.v.v.v.v.v.v.v.v.v.v.v.v.v.v.v.v. .w X                                                     & a ,.v.v.v.v.v.v.v.v.v.v.v.v.v.v.v.v.v.v.v.v.",
"v.v.v.v.v.v.v.v.v.v.v.v.v.v.v.v.v.v.v.v.v.v.v.v.v.! t @                                             : d &.v.v.v.v.v.v.v.v.v.v.v.v.v.v.v.v.v.v.v.v.v.v.",
"v.v.v.v.v.v.v.v.v.v.v.v.v.v.v.v.v.v.v.v.v.v.v.v.v.v.v.,.j 9 +                                 - t A i.v.v.v.v.v.v.v.v.v.v.v.v.v.v.v.v.v.v.v.v.v.v.v.v.",
"v.v.v.v.v.v.v.v.v.v.v.v.v.v.v.v.v.v.v.v.v.v.v.v.v.v.v.v.v.v.w.A a 9 : # . X       + & 3 w g ( i.v.v.v.v.v.v.v.v.v.v.v.v.v.v.v.v.v.v.v.v.v.v.v.v.v.v.v.",
"v.v.v.v.v.v.v.v.v.v.v.v.v.v.v.v.v.v.v.v.v.v.v.v.v.v.v.v.v.v.v.v.v.v.v.w.;.O.o.o.:.,.i.v.v.v.v.v.v.v.v.v.v.v.v.v.v.v.v.v.v.v.v.v.v.v.v.v.v.v.v.v.v.v.v.",
"v.v.v.v.v.v.v.v.v.v.v.v.v.v.v.v.v.v.v.v.v.v.v.v.v.v.v.v.v.v.v.v.v.v.v.v.v.v.v.v.v.v.v.v.v.v.v.v.v.v.v.v.v.v.v.v.v.v.v.v.v.v.v.v.v.v.v.v.v.v.v.v.v.v.v.",
"v.v.v.v.v.v.v.v.v.v.v.v.v.v.v.v.v.v.v.v.v.v.v.v.v.v.v.v.v.v.v.v.v.v.v.v.v.v.v.v.v.v.v.v.v.v.v.v.v.v.v.v.v.v.v.v.v.v.v.v.v.v.v.v.v.v.v.v.v.v.v.v.v.v.v.",
"v.v.v.v.v.v.v.v.v.v.v.v.v.v.v.v.v.v.v.v.v.v.v.v.v.v.v.v.v.v.v.v.v.v.v.v.v.v.v.v.v.v.v.v.v.v.v.v.v.v.v.v.v.v.v.v.v.v.v.v.v.v.v.v.v.v.v.v.v.v.v.v.v.v.v.",
"v.v.v.v.v.v.v.v.v.v.v.v.v.v.v.v.v.v.v.v.v.v.v.v.v.v.v.v.v.v.v.v.v.v.v.v.v.v.v.v.v.v.v.v.v.v.v.v.v.v.v.v.v.v.v.v.v.v.v.v.v.v.v.v.v.v.v.v.v.v.v.v.v.v.v."
};
