/* XPM */
static char *_b3fb6c5702b4e61d545c874555ee0fbdRGIZxqbVu3yoQx6[] = {
/* columns rows colors chars-per-pixel */
"75 75 2 1 ",
"  c white",
". c #FEFEFE",
/* pixels */
"                                                                           ",
"                                                                           ",
"                                                                           ",
"                                                                           ",
"                                                                           ",
"                                                                           ",
"                                                                           ",
"                                                                           ",
"                                                                           ",
"                                                                           ",
"                                                                           ",
"                                                                           ",
"                                                                           ",
"                                                                           ",
"                                                                           ",
"                                                                           ",
"                                                                           ",
"                                                                           ",
"                                                                           ",
"                        ...........................                        ",
"                        ...........................                        ",
"                        ...........................                        ",
"                        ...........................                        ",
"                        ...........................                        ",
"                        ...........................                        ",
"                        ...........................                        ",
"                        ...........................                        ",
"                        ...........................                        ",
"                        ...........................                        ",
"                        ...........................                        ",
"                        ...........................                        ",
"                        ...........................                        ",
"                        ...........................                        ",
"                        ...........................                        ",
"                        ...........................                        ",
"                        ...........................                        ",
"                        ...........................                        ",
"                        ...........................                        ",
"                        ...........................                        ",
"                        ...........................                        ",
"                        ...........................                        ",
"                        ...........................                        ",
"                        ...........................                        ",
"                        ...........................                        ",
"                        ...........................                        ",
"                        ...........................                        ",
"                        ...........................                        ",
"                        ...........................                        ",
"                        ...........................                        ",
"                        ...........................                        ",
"                        ...........................                        ",
"                        ...........................                        ",
"                        ...........................                        ",
"                        ...........................                        ",
"                        ...........................                        ",
"                        ...........................                        ",
"                                                                           ",
"                                                                           ",
"                                                                           ",
"                                                                           ",
"                                                                           ",
"                                                                           ",
"                                                                           ",
"                                                                           ",
"                                                                           ",
"                                                                           ",
"                                                                           ",
"                                                                           ",
"                                                                           ",
"                                                                           ",
"                                                                           ",
"                                                                           ",
"                                                                           ",
"                                                                           ",
"                                                                           "
};
