/* XPM */
static char *e7d3595cda794e40843c6c4e0eb370d8oF5Zv0M6JYEZFfaB[] = {
/* columns rows colors chars-per-pixel */
"75 75 212 2 ",
"   c #0A0A0F",
".  c #180B0A",
"X  c #060C15",
"o  c #0C0C13",
"O  c #070F1B",
"+  c #0B0F19",
"@  c #140E13",
"#  c #0D101B",
"$  c #161016",
"%  c #1E1216",
"&  c #141119",
"*  c #1A1419",
"=  c #260F0A",
"-  c #340F04",
";  c #2C120D",
":  c #361105",
">  c #32140D",
",  c #3C160D",
"<  c #231416",
"1  c #2C1515",
"2  c #2B1817",
"3  c #211619",
"4  c #241A1C",
"5  c #2B1B1B",
"6  c #331614",
"7  c #391713",
"8  c #331815",
"9  c #3C1913",
"0  c #341E1B",
"q  c #3C1F19",
"w  c #34211E",
"e  c #3C241E",
"r  c #4B1605",
"t  c #421508",
"y  c #44190E",
"u  c #4D1B0E",
"i  c #541602",
"p  c #551804",
"a  c #5B1903",
"s  c #541C0E",
"d  c #5B1E0D",
"f  c #441A12",
"g  c #4A1B10",
"h  c #551F10",
"j  c #581F10",
"k  c #641B03",
"l  c #6C1D03",
"z  c #641F0B",
"x  c #691F0A",
"c  c #751F01",
"v  c #7A1F00",
"b  c #5D200E",
"n  c #462117",
"m  c #4B2116",
"M  c #43251D",
"N  c #49241A",
"B  c #45291F",
"V  c #4C2A1F",
"C  c #542214",
"Z  c #5B2313",
"A  c #542719",
"S  c #542A1C",
"D  c #5B2B1B",
"F  c #6E2204",
"G  c #64210D",
"H  c #6C210B",
"J  c #67290E",
"K  c #742204",
"L  c #7D2305",
"P  c #7F2A05",
"I  c #742309",
"U  c #7B2409",
"Y  c #75280A",
"T  c #7D290B",
"R  c #622513",
"E  c #6B2711",
"W  c #632916",
"Q  c #6C2B14",
"!  c #622D1A",
"~  c #702710",
"^  c #742A12",
"/  c #7B2D12",
"(  c #6D331C",
")  c #7B3217",
"_  c #73361D",
"`  c #7B361B",
"'  c #7B391C",
"]  c #422820",
"[  c #4D2C20",
"{  c #542E20",
"}  c #592F20",
"|  c #573021",
" . c #5B3121",
".. c #633622",
"X. c #6D3822",
"o. c #743B22",
"O. c #7A3C21",
"+. c #7E4024",
"@. c #842404",
"#. c #8B2503",
"$. c #852905",
"%. c #8C2A04",
"&. c #832608",
"*. c #842B0C",
"=. c #8B2D0A",
"-. c #942602",
";. c #9A2700",
":. c #942A03",
">. c #9C2A02",
",. c #932D09",
"<. c #9C2E08",
"1. c #8E3106",
"2. c #87320E",
"3. c #953106",
"4. c #9C3106",
"5. c #94320A",
"6. c #9C3309",
"7. c #95390B",
"8. c #9D3B0B",
"9. c #863516",
"0. c #823B1C",
"q. c #8B3D1B",
"w. c #933A15",
"e. c #9C3A14",
"r. c #933D19",
"t. c #9B3E18",
"y. c #A52B01",
"u. c #A92D02",
"i. c #A43206",
"p. c #AC3205",
"a. c #A63907",
"s. c #A43409",
"d. c #AB3509",
"f. c #A4390A",
"g. c #AC3A0B",
"h. c #B13406",
"j. c #B33608",
"k. c #B43A0B",
"l. c #BA3D0C",
"z. c #A23B12",
"x. c #AA3E13",
"c. c #B43E10",
"v. c #803F22",
"b. c #8C411F",
"n. c #964114",
"m. c #9C4316",
"M. c #94441D",
"N. c #9B421C",
"B. c #9C481F",
"V. c #B2410E",
"C. c #BD400E",
"Z. c #A64217",
"A. c #AE4315",
"S. c #A2451D",
"D. c #AA471B",
"F. c #A54A1E",
"G. c #AD4A1D",
"H. c #B34413",
"J. c #BB4411",
"K. c #B64914",
"L. c #BC4914",
"P. c #B24619",
"I. c #B44C1C",
"U. c #BB4D1B",
"Y. c #B1511E",
"T. c #BB511D",
"R. c #844223",
"E. c #8D4523",
"W. c #924523",
"Q. c #9A4621",
"!. c #954925",
"~. c #9B4B24",
"^. c #A34B22",
"/. c #AC4E22",
"(. c #B14F21",
"). c #A55027",
"_. c #AC5225",
"`. c #B35324",
"'. c #BB5423",
"]. c #BF5822",
"[. c #B35628",
"{. c #BC5A29",
"}. c #C1420F",
"|. c #C34512",
" X c #C54A15",
".X c #CA4C16",
"XX c #C34E1A",
"oX c #CB4F18",
"OX c #C3531B",
"+X c #CC521B",
"@X c #CC591E",
"#X c #D3541B",
"$X c #D35A1E",
"%X c #DA5A1E",
"&X c #C35522",
"*X c #C35924",
"=X c #CC5C25",
"-X c #C45D29",
";X c #CA5E28",
":X c #D55D22",
">X c #DD5E22",
",X c #CB602A",
"<X c #D76024",
"1X c #DC6325",
"2X c #D36229",
"3X c #D9662C",
"4X c #DD682B",
"5X c #E36425",
"6X c #E46728",
"7X c #E86728",
"8X c #E5692A",
"9X c #EC6C2B",
/* pixels */
">X+XU.U.$X#X.X>X&X3 z U &.v *.&.@.&.&.&.U I L L &.I I 7  .,XU.P.x.$.L =.f.I.'.Z.f.A.P.A.G.q.w E.`.S.^.B.q.M.F./.`.M._._._.[._.).] 0 ~.`.S.^.^.B.B.^.G.",
"l.u.y.y.p.d.s.j.d.< ;.u.u.y.i.y.y.u.u.y.:.<.u.u.-.<.>.z !.%Xp.d.d.u.:.y.y.p.l.i.y.y.p.y.a.d.C J.J.l.l.l.4.y.d.|.$XV.k.k.l.}.V.1XR.h c.C.l.l.l.s.s.j.|.",
"u.u.y.y.y.>.i.j.6.$ ;.y.u.%.-.y.u.;.y.u.y.>.>.:.,.$.y.H W.#Xy.i.y.y.y.y.u.y.u.y.:.-.d.u.l.d.g y.u.i.s.y.y.y.u.u.h.u.y.-.u.p.p.%XE.f i.d.s.>.y.y.y.u.i.",
"d.y.y.p.u.;.y.-.k + -.>.y.y.y.;.p.u.y.u.y.@.5.>.s.p.y.x 0.d.y.;.>.y.u.u.y.5.y.y.i.s.d.6.<.-.; p u.y.;.y.u.u.u.p.u.y.y.s.d.a.5.l.0.@ l y.y.;.u.u.u.u.s.",
"u.y.y.y.>.u.>.p.-.1 @.:.-.i.u.y.y.u.y.d.%.#.:.y.u.y.$.^ H y.p.y.>.:.#.:.K y.j.#.y.;.u.u.-.#.y -.-.<.y.i.p.y.y.y.6.L :.>.y.h.>.%.E 9 -.>.>.y.y.u.y.y.y.",
"u.y.j.y.>.>.>.;.-.< a y.y.;.i.u.y.u.u.u.y.>.4.p.d.3.g.b.z ;.y.>.-.I >.>.>.y.u.y.y.u.u.u.y.;.g ;.:.y.>.>.y.h.y.y.u.y.@.6.>.i.u.y.z u ;.>.>.y.:.y.h.u.;.",
"y.y.y.y.;.-.>.h.;.< :.h.y.i.y.y.y.u.u.p.u.;.:.>.i.p.#X~.z y.p.#.K K y.y.u.y.y.y.u.y.>.>.>.;.g y.y.y.,.;.y.p.y.u.y.>.y.=.:.$.%.y.z g ;.u.>.:.y.y.p.y.y.",
"u.u.u.y.h.y.y.u.;.< c.|.s.j.|.:.:.p.C.6Xg.J.k.s.2.f.<X!.z y.y.l K $.u.y.h.y.-.-.y.u.;.>.y.#.g y.u.y.y.>.y.y.p.y.>.>.>.u.;.>.>.>.d g y.u.y.>.y.y.y.u.y.",
"h h u s C u u s f + O.^.t.Q.^.q.0.N.Q._.W.^.^.Q.E.!._.[ 1 G r ; b G H G H G z b G G z x z u % z c v I U U c T v K I I U I T H H 1 < x c I I T I c U c ",
"% u f R s s Z u h h s h h h s s h 1 * ~.{.{.{.{.{./.[.*X{.{.Q.`.'.'.'.[.w O  .^.Q.~.~.9.W.Q.Q.M.9.~ ~ q.Q.~.).[ # 0 | S } S } { } { { { { { { { | ] # ",
"H >.>.>.y.u.:.>.y.u.u.y.y.u.y.y.y.-.S 9XV.l.k.y.k.g..XoXu.:.;.y.j.p.d.}.Z O 5.%.4.p.u.y.i.l.h.u.;.,.-.j.d.p.#X-X[ 9XU.OX#XJ..XK.>X$X|.c.6.P..X X X#XR ",
"I >.%.#.>.y.>.-.y.y.y.y.y.;.>.y.h.-.S 6Xk.y.u.>.>.u.j.j.y.u.y.y.y.s.u.p.y X F s.u.u.y.>.u.p.u.y.y.y.y.y.s.u.|.{.} 9Xp.u.u.y.>.p.l.l.y.y.y.u.y.i.u.p.d ",
"U y.>.>.>.=.=.y.y.y.u.h.u.y.>.>.-.#.A c.a.,.i.f.>.y.y.k.u.u.y.u.<.;.u.:.. + >.d.%.p.s.a.;.u.h.h.y.y.y.;.y.y.h.[.S $Xk.4.h.<.s.y.u.h.u.y.y.u.#.u.p.<.> ",
"T :.u.j.y.y.@.<.u.y.u.y.y.>.>.y.s.#.g >.:.h.p.>.y.@.s.y.y.y.u.u.y.>.>.@., # >.%.a.p.>.i.-.u.u.y.y.u.y.y.y.u.y.=.m f.%.p.u.4.y.#.>.y.u.y.u.u.y.;.-.c = ",
"w.i.%.k.d.4.y.u.u.i.y.y.u.y.>.>.#.- < y.y.s.y.s.#.%.y.y.y.h.y.#.y.y.<.:.s # y.y.j.p.u.y.y.y.y.u.u.u.-.-.y.d.>.I f u.d.j.u.i.#.<.h.y.y.u.y.<.y.y.l.y.s ",
"/..Xi.d.y.:.>.u.h.u.u.y.u.y.<.u.h.v 7 ;.>.=.:.>.>.>.y.y.y.y.u.y.-.>.y.y.s # y.y.y.y.y.u.y.y.y.u.y.u.u.#.$.u.;.@.9 y.>.%.:.%.-.>.y.u.y.u.y.y.;.<.y.;.d ",
"[.@Xy.y.y.y.y.p. Xj.y.y.y.u.y.u.u.,.f -.,.>.>.u.y.:.:.y.u.u.y.y.;.y.h.u.h + >.<.-.;.y.u.;.;.y.u.y.y.u.;.@.h.u.@.7 ;.5.-.y.y.y.-.;.u.y.;.u.y.;.y.h.y.d ",
"o.-X*X;X&X&X'.`.=X'.I.Z.m.'.'.I.=Xv.4 j x I x x H H H H T x x E I I x H < + d U U K z x Y v U &.U &.&.*.c I L f 1 %.-.<.-.y.>.:.;.y.u.y.y.y.i.;.y.-.f ",
"2 M N N N N N n M 0 e M N N N N m 0 < < 1 8 1 1 1 1 1 $ & < < < < * % % * & % < 1 1 < @ < < < q e f q 7 8 8 q w w N g A C A A N 2 1 8 8 1 8 1 8 6 1 & ",
"<.<.-.-.z.:.:.-.&.% l -.%.%.;.-.%.-.-.d.,.;.<.6.-.-.-.s f @.@.#.#.%.=.&.#.,.:.%.#.,.I p #.x [ 3X&XJ.c.,.P P y.J.U.D.s.c.g.J.P.x.S % z &.&.&.=.@.&.*.@.",
"u.y.u.y.;.;.y.h.>.< -.<.<.>.y.y.-.-.y.y.y.y.y.;.>.p.u.I I <.>.-.y.y.;.;.y.y.y.y.u.y.#.>.p.-._ 5Xu.s.u.d.y.y.y.y.p.p.>.y.u.y.y.k.R f ;.u.y.;.y.u.y.u.u.",
"y.>.p.u.y.-.;.y.-.< >.y.$.%.%.:.y.y.y.u.i.y.y.;.-.y.-.H I y.y.y.y.y.y.y.y.y.>.y.u.-.K y.y.-.( >Xd.u.<.y.y.y.y.y.y.u.>.:.d.i.g.k.s f -.u.;.>.;.y.y.y.u.",
"y.y.p.y.%.y.;.y.-.< >.>.u.p.u.<.@.u.u.y.u.y.;.y.y.y.>.z c y.y.c.u.u.;.y.y.y.p.p.i.-.y.y.<.@.R l.u.y.y.>.y.y.y.,.y.y.>.4.p.d.:.:.h f -.>.y.y.:.y.p.u.y.",
"y.y.y.u.u.y.:.:.c $ s.%.p.p.4.>.@.>.y.u.y.u.u.u.>.-.#., I $.u.h.u.,.-.y.u.i.y.u.p.>.y.u.u.-.h y.i.u.y.%.L -.@.>.p.;.>.y.y.j.i.:.s 7 @.4.>.y.<.p.y.y.y.",
"h.u.y.y.y.>.u.d.%.+ #XJ.3.d.<.>.y.u.p.u.u.y.u.>.y.u.l., I l.4.i.s.<.>.y.u.h.u.y.y.y.-.y.j.U.Z ;.;.>.$.c %.g.>.y.y.y.y.u.y.u.y.y.h o c p.>.;.u.y.u.y.d.",
"h.u.y.y.u.i.d.p.y.% 8XJ.u.u.>.>.>.j.l.u.y.y.y.y.s.u.h.z *.|.u.u.y.>.y.p.p.y.u.y.y.y.i.i.j.2XZ y.p.>.L F >.y.y.y.y.;.u.y.y.;.;.;.h 7 <.u.s.y.y.y.y.u.p.",
".Xk.s.s.J.C.j.oXXX2 4X<X+X#Xl. XK.@X>X}.a.1.f.|.l.l.>X) q.y.>.j.y.y.>.g.l.p.y.%.$.l.k.y. X3XC y.u.@.k #.y.u.j.y.y.>.>.y.;.y.y.>.g f k.j.d.j.d.>.:.y.|.",
"....X.....X.....[ # e .. ......... ..... .|  ..... ...4 0 o.o.O.o._ ( X._ _ W s s R _ O.O...& 8 6 . 7 9 f 9 9 f 7 9 9 f f 9 7 6 + 4 R.~.E.W.Q.E.W.W.~.",
"* e e e ] e e e e e e w e e e e e 5 + < % 2 < < < 3 < < < < < < < < < < + * S.G./.F.S.t.G.(.G.e.&.Y &.D./.(.[.* * g u G s d d s d d d d d j d d d g & ",
"R.8XOX>X#X+X+XU.6X#XJ.f.7.XX|.J.$XI.f =.-.<.-.;.%.:.;.;.k.;.;.>.<.;.;.-.1 N i.4.s.y.u.y.g.k.h.y.>.:.i.h.d.d.6XS f :.>.>.y.y.y.-.;.y.u.u.u.u.>.y.y.;.f ",
"~.$Xi.y.y.;.u.p.|.h.u.y.y.u.p.s.u.y.h ;.5.>.>.u.>.:.>.y.y.y.y.y.;.y.h.y.7   $.f.u.u.>.-.y.p.y.y.u.y.y.i.u.u.%X{ f y.,.%.u.u.>.;.y.y.y.y.y.;.-.>.j.;.u ",
"!..Xa.a.u.:.>.y.y.u.y.y.y.y.-.y.j.L y y.;.&.@.*.>.y.y.y.y.g.y.y.:.-.>.>.7 % y.5.3.p.d.4.y.y.<.u.y.y.u.;.;.u.l.S u y.y.%.@.*.*.y.y.y.y.k.y.y.u.y.-.;.g ",
") 4.%.j.p.4.>.:.y.y.u.u.h.y.>.>.:.a y y.y.h.y.i.-.%.u.y.u.u.u.%.y.y.i.>.7 f -.>.h.u.y.>.-.h.:.#.;.%.:.y.y.p.y.f C >.y.j.u.y.:.%.d.y.u.y.u.>.y.>.s.@., ",
"I >.u.j.y.y.@.<.p.y.y.y.u.:.y.i.i.:.b 4.%.h.p.:.>.@.y.y.u.u.u.u.y.>.-.K % 9 y.y.j.y.u.y.u.u.y.-.4.L K >.y.i.;.7 D f.%.s.p.6.4.:.;.d.y.u.u.u.;.y.-.k   ",
"H y.-.%.#.%.:.y.y.y.>.p.y.y.>.>.y.-.( oXg.:.d.<.>.y.u.h.y.y.y.u.<.i.p.y.< f y.>.;.;.y.u.y.y.y.u.4.>.K K :.h.>.9 X.5Xd.u.d.-.y.y.u.h.y.y.u.y.>.d.u.<., ",
"G y.=.:.y.u.>.-.y.u.y.y.y.;.>.u.h.;.( 7Xd.u.y.>.y.i.l.l.y.y.y.u.y.s.u.p.> 9 >.>.;.y.u.y.-.-.u.u.u.u.L @.@.u.u.7 X.8Xi.h.p.y.p.g. Xl.u.y.>.u.p.s.h.p.g ",
"d >.>.:.y.u.<.>.y.u.u.u.y.d.y.y.y.-.D 9X@X>X#X X+XP.5X$X|.z.=.A..XJ.oX%Xq * I K &.L &.U U &.&.*.@.@.U I : l I & M 4X1X6X7X6X6X@X9X9X>X:XT.>X5X>X5X*X0 ",
"* 8 8 f 8 9 9 8 8 1 1 1 1 1 1 8 1 % & ] { { S { { { { { { { { { { { S B # + O + O O O O O O O O O O O O O O O + O O # O + O O + O + O O + O O O + + + ",
"5X1X<X:X5X>X>X7X:X4 e S.Y.I.G.D.z.`.`.(.e.L T ,.G.(.'.).* [.:X+XXXg.%.3.g.+X+X'.K.+XU.J . Z.M M [././.(.^.M.G./.[._._.`./.'.[.`.+.4 !.'./.(.`././.(.`.",
"k.y.y.>.u.h.s.u.d.1 Q j.i.p.u.y.y.d.k.u.y.>.>.d.u.d.j.9Xe 4Xk.s.d.h.>.>.y.u.h.d.y.y.u.p.P p.Q I |.h.g.l.p.:.i.j.#X|.g.h.d.k.k.OX8Xf k.l.d.k.j.s.i.p.|.",
"y.u.y.y.y.>.d.p.y.% R c.h.u.p.-.>.u.y.y.y.y.y.y.s.y.d.5X0 >Xj.i.u.y.y.u.y.u.u.y.;.-.i.u.s..Xb d j.y.s.;.y.y.y.u.h.p.;.;.-.p.u.|.7X7 i.p.p.<.y.y.y.u.p.",
"8.y.u.u.u.y.;.-.l @ d u.3.d.p.s.i.y.y.1.u.u.u.y.;.y.u.|.0 g.y.y.;.>.u.u.y.g.u.y.y.6.d.j.=.4.s . -.y.;.y.u.y.u.u.p.y.y.a.f.h.5.i.c.  k ;.y.;.u.u.y.u.p.",
";.y.u.u.<.u.y.<.#.< d -.>.j.y.>.>.;.u.,.-.;.#.:.y.u.y.u.2 -.u.u.y.>.u.u.u.u.u.y.-.>.y.k.y.-.d u -.>.;.y.y.u.y.u.y.i.@.>.>.p.p.-.i.6 @.<.;.y.>.y.y.y.y.",
">.y.l.u.-.>.y.;.;.1 d y.u.j.y.h.y.y.u.y.<.g.L L >.y.-.;.2 -.;.y.>.#.p.j.i.>.y.y.y.h.u.h.y.u.d z >.y.y.y.y.y.h.y.u.y.=.$.p.p.p.y.;.y -.<.y.y.;.y.j.u.y.",
";.y.y.u.>.-.>.h.;.1 z y.;.;.y.y.y.;.y.y.>.u.:.l v >.u.y.1 ;.p.;.L -.u.y.y.u.y.y.y.y.y.;.>.y.d x >.u.>.>.y.y.y.u.y.y.>.>.-.#.%.:.;.f ;.p.y.;.y.y.u.y.y.",
";.u.y.u.u.y.;.u.>.1 h >.>.;.y.y.y.-.>.y.u.y.y.K c -.u.y.< ;.y.-.#.p.y.u.u.u.>.-.>.y.y.;.;.<.s H y.u.y.>.y.u.u.u.y.:.:.y.y.>.>.4.-.f ;.y.y.;.y.y.u.u.u.",
"f g f f g f f g 9 # < s z z z z b d z z G z z d y ; s u + f u = u b s s s d d E E ~ ~ H E E q m *.T U *.*.*.*./ x z G H H x R z u $ s z z z H z z x x ",
"5 {  .| |  .| S | } } { { { | | | 5 + # 1 1 7 1 6 6 6 6 6 6 6 6 6 6 6 1 % O S N.N.G.t.w.w.M.S.N.2.H H 2.t.N._.E.* 7 u 9 u s s s u s h h h h j s s u < ",
"-X4X+X%X|..X XOX5X|.k.3.1..XJ.l.>Xe.% z y.>.;.;.u.<.-.y.u.u.y.y.d.y.y.u.y.+ e.>.>.y.y.>.4.k.p.y.y.;.>.k.d.d.l.3Xf ,.y.=.@.u.>.:.>.y.u.y.y.y.y.>.u.u.x ",
";XoXy.u.>.>.y.d.C.p.y.y.y.u.s.p.p.U * U >.=.>.;.u.>.-.y.y.y.u.y.;.>.u.u.y.* *.l.i.p.y.>.y.u.y.y.y.y.u.y.<.y.j.=XN ;.>.#.:.<.*.%.#.;.y.y.u.y.:.>.p.y.x ",
"T.|.4.d.6.<.y.u.u.p.u.y.u.y.>.y.h.p + &.y.-.%.-.=.:.y.y.y.y.d.y.y.:.y.;.;.& U d.3.d.f.4.y.y.<.4.u.y.y.y.;.u.u.P.f y.y.u.u.p.y.-.-.#.;.d.y.;.y.>.;.;.x ",
"5.%.i.p.>.<.#.>.y.i.u.u.u.u.>.-.#.r + *.-.j.h.y.y.#.-.p.y.u.u.y.>.y.s.y.;.& U :.p.h.y.y.#.u.u.-.@.%.L >.u.u.p.%.f s.,.d.u.>.>.-.p.y.;.y.u.y.y.y.s.>.a ",
"=.>.u.j.y.>.@.s.u.y.u.u.:.>.y.y.y.U * t.,.>.p.i.6.:.-.u.i.y.y.u.y.y.>.-.i + v y.u.h.y.p.y.y.y.y.:.>.F -.>.y.>.@.C V.3.4.p.6.i.;.u.p.y.y.u.u.y.;.y.v ; ",
"@.y.@.&.$.,.>.y.y.y.s.u.y.y.3.>.;.U * [.|.d.d.i.>.>.u.u.u.u.u.y.>.:.y.k.&.+ U y.;.;.y.u.y.y.y.y.y.y.>.l L y.u.%.S 6Xk.i.j.:.y.y.h.p.u.y.y.u.-.d.u.g.u ",
"@.,.6.;.y.u.>.-.y.y.y.u.u.-.>.u.p.@.* {.+Xy.y.y.>.y.p. Xh.y.y.y.u.u.s.y.y.& I <.y.;.y.u.-.>.y.u.u.y.u.F L >.u.-.V 9Xa.i.=.y.u.d.}. Xu.>.>.u.p.i.u.j.x ",
"x ;.,.-.>.-.$.-.;.u.>.;.;.s.-.>.;.z & !.8XT.>X+X#XOXT.8X.XJ.7.m.XX.Xc.:XU.& 2 x z c I l Y x I I I I I I s = l f 5 ).].[.b.S.;X_.'.=X&XT.w.F.'.U.'.-X( ",
"X.` _ ` ` ` ` ` X.2 7 f f f g f f 7 1 7 D D D D ! A A B [ o.X.X.( ! D ! D e e e q e e e M 0 # 4 w 0 w w w 0 e 0 w e V [ [ V V M 5 4 ] { [ { { [ { [ e ",
"#X.XH.H.oXoX X$X&X2 I ;.;.-.<.i.;.y.<.;.;.=.;.;.>.,.-.h  .9X#X.X|.i.:.>.l..X$XK.k.|..X|. XA.e ^.=XU.'.OXm.S.I.&X2XY.&X&X&X2X].,X..w `.:XL.&X&X(.I.XX=X",
"i.y.y.y.y.u.s.y.u.1 -.u.u.y.-.y.y.y.y.y.-.>.y.y.-.=.>.H v.#Xu.s.u.u.y.y.y.u.h.p.>.y.y.u.a.d.h y.u.i.d.p.y.y.y.h.|.p.y.>.y.u.i.$X~.f y.u.d.u.u.y.y.y.l.",
"i.u.u.u.u.;.u.u.-.& #.;.y.-.;.y.u.y.u.u.>.>.,.:.%.-.y.c O..Xu.>.>.u.y.u.u.>.y.y.>.<.p.>.k.s.9 #.h.u.>.y.y.y.y.h.p.u.>.:.u.i.d.oX!.= ,.h.p.<.u.y.y.y.h.",
">.y.u.u.y.y.;.#.c @ %.y.d.y.>.>.u.u.y.u.p.@.>.y.k.j.u.I Q u.y.;.y.>.u.y.>.<.y.;.>.6.d.d.@.-.; t @.;.y.y.u.y.u.4.y.y.4.6.p.k.%.s.9.  i #.;.y.u.u.y.y.u.",
">.y.u.u.%.y.y.s.-.1 p #.;.y.y.y.y.y.y.y.-.#.6.s.h.>.$.9.s ;.d.u.>.$.L #.%.y.h.;.y.u.p.h.i.-.g ;.>.i.y.:.y.u.u.y.u.:.#.y.y.h.p.:.E f -.i.;.y.:.y.u.y.y.",
";.u.l.y.y.:.>.;.;.1 l j.u.<.u.u.u.y.h.h.y.>.y.s.a.4.J.^.d y.;.>.#.c u.k.>.>.y.y.u.y.y.y.y.;.g -.;.>.>.y.y.k.y.y.y.y.=.=.:.-.>.y.x g -.;.;.y.y.y.k.u.y.",
";.y.y.y.y.;.y.p.y.1 :.p.:.u.p.y.y.y.p.|.d.>.;.>.:.y.+X_.s y.h.#.c F y.y.u.y.>.;.y.y.;.>.y.;.g y.u.u.>.-.y.u.y.y.y.-.>.y.>.-.=.y.z f ;.d.y.;.y.y.u.y.y.",
"y.p.y.y.p.y.y.y.>.% A.#XJ.J.oX6.4.V..X9XP.OX|.J.w.A.1X).y y.y.a L #.u.u.h.y.>.>.y.y.y.y.>.@.f ;.u.y.y.i.u.y.u.u.y.>.3.u.y.>.>.>.d f ;.y.y.y.p.y.y.u.u.",
"+ + + & # # # # # + 4 e ] M ] ] e ] B V o.o.o.o.o.o.o.V e S n n D A A A 8 < < < 3 3 < < < * + 3 7 7 7 7 7 7 8 7 6 8 7 6 8 9 1 1 & + < 6 8 6 6 8 8 7 8 ",
"] v.v.0./ R d E ) ` v.' ^ 0.0.0.0.! * ` &XA.P.U.n.7.D.U.;XY.G.T.U.'.T.*X^.O 1 g u s s s u u s Z s s u g 6 ; h 1 & | !.E.~.W.Q.E.E.!.W.E.' ' W.q.v.Q.} ",
"!.5Xl.j.j.>.%.;.u.j.|.f.u.d.h.p.f.l.e #.j.u.d.j.y.>.>.p.#Xl.s.y.y.p.y.L.9X# &.>.;.;.y.u.>.-.y.u.y.y.u.v l ;.y.@.5 [.T.V.|.k.J.V.H.>Xl.p.4.4.|.k.d..Xs.",
"W.#Xu.s.;.y.u.y.y.y.p.y.y.-.h.u.k.k.6 k k.y.>.>.u.y.u.h.u.u.y.i.>.d.i.J.6XO :.>.y.;.y.y.>.y.y.y.<.y.:.c @.p.y.%.5 [.|.u.d.>.-.>.u.h.u.y.y.y.y.i.u.j.&.",
"v.J.u.y.-.u.y.u.y.4.y.y.y.6.h.6.s.y.1 : -.y.y.>.u.y.y.i.p.>.-.i.s.p.4.3. X+ ;.y.u.u.u.y.y.y.y.>.4.y.I -.-.y.;.@.5 S.g.<.k.s.>.y.u.p.u.u.u.u.y.;.y.<.r ",
"H u.u.y.y.>.-.y.@.y.u.#.4.:.u.u.%.L < K i.g.y.i.>.u.y.y.p.y.#.>.y.p.j.>.s.O -.<.u.u.y.y.-.u.p.%.#.L K y.u.d.y.L 2 *.%.y.u.>.y.L <.y.y.y.u.u.u.>.-.-.x ",
"z >.i.y.>.I @.:.>.y.u.y.y.h.u.j.s.p @ L -.y.>.y.y.u.p.y.y.y.<.%.:.,.>.u.;.O -.<.5.p.p.s.;.y.i.4.y.u.u.>.;.y.y.x.2 @.i.p.i.y.%.%.y.u.u.p.u.>.>.y.u.;.#.",
"z y.u.#.@.K u.y.y.y.y.y.y.y.y.<.;.@.< @.y.p.;.-.y.y.y.y.y.;.;.y.y.;.%.>.>.O i.c.p.j.:.>.;.u.;.y.y.y.u.;.>.s.|.-X2 &.y.&.%.%.y.>.y.y.u.>.u.y.;.-.u.y.#.",
"z u.u.L @.%.y.y.u.y.>.-.u.y.;.;.y.-.6 U y.u.;.u.y.y.y.u.y.;.:.y.y.>.:.>.&.O c.i.y.u.y.y.i.j.u.u.y.>.>.u.d.u.|.;X< I <.:.>.y.u.<.-.y.u.y.y.y.;.y.u.u.#.",
"f #.c r L %.;.-.>.-.#.%.-.-.%.:.%.l % 1 h j d Z s s s d s u h h s s h s 8 O r. XL.+X|.l.H.=XoX Xa.:.:.C. X X1X_.& u @.&.&.#.#.&.@.@.,.%.#.,.=.#.#.@.z "
};
